<?xml version="1.0" encoding="UTF-8" standalone="no"?>
<!-- Created with Inkscape (http://www.inkscape.org/) -->

<svg
   width="48"
   height="48"
   viewBox="0 0 48 48"
   version="1.1"
   id="svg1"
   inkscape:version="1.4.2 (ebf0e940d0, 2025-05-08)"
   sodipodi:docname="icon_package.svg"
   inkscape:export-filename="icon_192.png"
   inkscape:export-xdpi="384"
   inkscape:export-ydpi="384"
   xml:space="preserve"
   xmlns:inkscape="http://www.inkscape.org/namespaces/inkscape"
   xmlns:sodipodi="http://sodipodi.sourceforge.net/DTD/sodipodi-0.dtd"
   xmlns="http://www.w3.org/2000/svg"
   xmlns:svg="http://www.w3.org/2000/svg"><sodipodi:namedview
     id="namedview1"
     pagecolor="#505050"
     bordercolor="#ffffff"
     borderopacity="1"
     inkscape:showpageshadow="0"
     inkscape:pageopacity="0"
     inkscape:pagecheckerboard="1"
     inkscape:deskcolor="#505050"
     inkscape:document-units="px"
     inkscape:zoom="4"
     inkscape:cx="-2.75"
     inkscape:cy="4.75"
     inkscape:window-width="1920"
     inkscape:window-height="999"
     inkscape:window-x="0"
     inkscape:window-y="0"
     inkscape:window-maximized="1"
     inkscape:current-layer="g8" /><defs
     id="defs1"><inkscape:path-effect
       effect="fillet_chamfer"
       id="path-effect37"
       is_visible="true"
       lpeversion="1"
       nodesatellites_param="F,0,0,1,0,0,0,1 @ F,0,0,1,0,0,0,1 @ F,0,0,1,0,0,0,1 @ F,0,0,1,0,0,0,1 @ F,0,0,1,0,0,0,1 @ F,0,0,1,0,0,0,1 @ F,0,0,1,0,0,0,1 @ F,0,0,1,0,0,0,1 @ F,0,0,1,0,0,0,1 @ F,0,0,1,0,0,0,1"
       radius="1"
       unit="px"
       method="auto"
       mode="F"
       chamfer_steps="1"
       flexible="false"
       use_knot_distance="true"
       apply_no_radius="true"
       apply_with_radius="true"
       only_selected="false"
       hide_knots="false" /><inkscape:path-effect
       effect="fillet_chamfer"
       id="path-effect36"
       is_visible="true"
       lpeversion="1"
       nodesatellites_param="F,0,0,1,0,1.5,0,1 @ F,0,0,1,0,1.5,0,1 @ F,0,0,1,0,1.5,0,1 @ F,0,0,1,0,1.5,0,1 | F,0,0,1,0,1.5,0,1 @ F,0,0,1,0,1.5,0,1 @ F,0,0,1,0,1.5,0,1 @ F,0,0,1,0,1.5,0,1 | F,0,0,1,0,1.5,0,1 @ F,0,0,1,0,1.5,0,1 @ F,0,0,1,0,1.5,0,1 @ F,0,0,1,0,1.5,0,1"
       radius="1.5"
       unit="px"
       method="auto"
       mode="F"
       chamfer_steps="1"
       flexible="false"
       use_knot_distance="true"
       apply_no_radius="true"
       apply_with_radius="true"
       only_selected="false"
       hide_knots="false" /><inkscape:path-effect
       effect="fillet_chamfer"
       id="path-effect33"
       is_visible="true"
       lpeversion="1"
       nodesatellites_param="F,0,0,1,0,1.5,0,1 @ F,0,0,1,0,1.5,0,1 @ F,0,0,1,0,1.5,0,1 @ F,0,0,1,0,1.5,0,1 | F,0,0,1,0,1.5,0,1 @ F,0,0,1,0,1.5,0,1 @ F,0,0,1,0,1.5,0,1 @ F,0,0,1,0,1.5,0,1 | F,0,0,1,0,1.5,0,1 @ F,0,0,1,0,1.5,0,1 @ F,0,0,1,0,1.5,0,1 @ F,0,0,1,0,1.5,0,1"
       radius="1.5"
       unit="px"
       method="auto"
       mode="F"
       chamfer_steps="1"
       flexible="false"
       use_knot_distance="true"
       apply_no_radius="true"
       apply_with_radius="true"
       only_selected="false"
       hide_knots="false" /><inkscape:perspective
       sodipodi:type="inkscape:persp3d"
       inkscape:vp_x="1.3328266 : 41.091542 : 1"
       inkscape:vp_y="0 : 1000 : 0"
       inkscape:vp_z="47.764795 : 42.894778 : 1"
       inkscape:persp3d-origin="24 : 16 : 1"
       id="perspective10" /></defs><g
     inkscape:label="Camada 1"
     inkscape:groupmode="layer"
     id="layer1"><g
       id="g8"
       transform="matrix(1.1659867,0,0,1.1659867,-3.983679,-3.983679)"><g
         id="g3"><rect
           style="opacity:1;fill:#00222b"
           id="rect7"
           width="36.147491"
           height="36.147491"
           x="5.9262543"
           y="5.9262543"
           rx="2.3773119"
           ry="2.3773119" /><rect
           style="fill:#0088aa;stroke-width:0.955533"
           id="rect4"
           width="31.421389"
           height="3.3288558"
           x="8.2893047"
           y="31.364941"
           rx="1.0463241"
           ry="1.0463241" /><rect
           style="fill:#00ccff;stroke-width:0.955533"
           id="rect5"
           width="31.421389"
           height="3.3288558"
           x="8.2893047"
           y="26.79398"
           rx="1.0463241"
           ry="1.0460172" /><rect
           style="fill:#004455;stroke-width:0.955533"
           id="rect6"
           width="31.421389"
           height="3.3288558"
           x="8.2893047"
           y="35.935905"
           rx="1.0463241"
           ry="1.0463241" /></g><g
         id="g10"
         transform="matrix(1,0,0,-1,0,48)"><rect
           style="fill:#0088aa;stroke-width:0.955533"
           id="rect8"
           width="31.421389"
           height="3.3288558"
           x="8.2893047"
           y="31.364941"
           rx="1.0463241"
           ry="1.0463241" /><rect
           style="fill:#00ccff;stroke-width:0.955533"
           id="rect9"
           width="31.421389"
           height="3.3288558"
           x="8.2893047"
           y="26.79398"
           rx="1.0463241"
           ry="1.0460172" /><rect
           style="fill:#004455;stroke-width:0.955533"
           id="rect10"
           width="31.421389"
           height="3.3288558"
           x="8.2893047"
           y="35.935905"
           rx="1.0463241"
           ry="1.0463241" /></g><path
         id="path29"
         style="fill:#00222b;fill-opacity:1;stroke-width:1.90696"
         d="m 17.222238,-47.885478 -23.8883634,9.852841 -10e-7,2.053652 23.8883654,9.852841 23.888365,-9.852841 v -2.053652 z" /><path
         id="path30"
         style="fill:#00222b;fill-opacity:1;stroke-width:1.90696"
         d="m 17.222238,-3.3844567 -23.8883634,-9.8528413 -10e-7,-2.053652 23.8883654,-9.852841 23.888365,9.85284 v 2.053653 z" /><path
         style="fill:#00222b;fill-opacity:1;stroke-width:0.857643"
         d="m -6.6661264,-35.978985 v 20.688035 l 47.7767344,-10e-7 v -20.688034 z"
         id="path31" /><path
         id="path32"
         style="fill:#dde9af;stroke-width:0.857643"
         d="m -3.3879874,-34.727697 19.0825504,7.933195 V -6.5862967 L -3.3879874,-14.894711 Z"
         sodipodi:nodetypes="ccccc" /><path
         id="path33"
         style="fill:#dde9af;stroke-width:0.857643"
         d="m 37.72526,-34.727697 -19.08255,7.933195 v 20.2082053 l 19.08255,-8.3084143 z"
         sodipodi:nodetypes="ccccc" /><rect
         style="fill:#dde9af;fill-opacity:1;stroke-width:1.65759"
         id="rect33"
         width="20.823467"
         height="20.823467"
         x="-49.622154"
         y="-68.251877"
         rx="0"
         ry="0"
         transform="matrix(0.92444952,0.38130446,-0.92444952,0.38130446,0,0)" /><path
         id="rect26"
         style="fill:#00222b;fill-opacity:1;stroke-width:1.02297"
         d="M 23.999998,12.064091 11.185274,17.34957 v 1.101665 11.097527 1.101665 l 12.814724,5.285478 12.814725,-5.285478 V 29.548762 18.451235 17.34957 Z"
         inkscape:path-effect="#path-effect37"
         inkscape:original-d="M 23.999998,12.064091 11.185274,17.34957 v 1.101665 11.097527 1.101665 l 12.814724,5.285478 12.814725,-5.285478 V 29.548762 18.451235 17.34957 Z" /><path
         style="fill:#dde9af;stroke-width:0.460076;opacity:0.85"
         d="m 33.64236,19.768385 -7.466531,3.104063 a 2.2480559,2.2480559 123.71293 0 0 -1.385075,2.075818 l 0,7.840533 a 0.98291931,0.98291931 33.236005 0 0 1.375298,0.901204 l 7.486085,-3.259391 a 2.2890994,2.2890994 123.23601 0 0 1.375298,-2.098796 V 20.692567 A 1.0008648,1.0008648 33.712931 0 0 33.64236,19.768385 Z"
         id="path38" /><path
         style="fill:#dde9af;stroke-width:0.460076;opacity:0.7"
         d="m 12.972562,20.692567 v 7.639249 a 2.2890993,2.2890993 56.763994 0 0 1.375298,2.098795 l 7.486086,3.259393 a 0.98291934,0.98291934 146.76399 0 0 1.375298,-0.901205 v -7.840533 a 2.2480558,2.2480558 56.287068 0 0 -1.385075,-2.075818 l -7.466532,-3.104063 a 1.0008648,1.0008648 146.28707 0 0 -1.385075,0.924182 z"
         id="path37" /><path
         style="fill:#dde9af;stroke-width:0.460076"
         d="m 22.642077,14.283148 -7.553187,3.115394 a 0.61869122,0.61869122 89.999998 0 0 0,1.1439 l 7.553187,3.115393 a 3.6367095,3.6367095 0 0 0 2.773354,0 l 7.553187,-3.115393 a 0.61869122,0.61869122 90.000002 0 0 0,-1.1439 l -7.553187,-3.115394 a 3.6367087,3.6367087 0 0 0 -2.773354,0 z"
         id="rect22" /><path
         id="path34"
         style="fill:#00222b;fill-opacity:1;stroke-width:1.02297"
         d="m -14.281841,12.064091 -12.814724,5.285479 v 1.101665 11.097527 1.101665 l 12.814724,5.285478 12.8147246,-5.285478 V 29.548762 18.451235 17.34957 Z" /><path
         id="path35"
         style="fill:#dde9af;stroke-width:0.460076"
         d="m 22.642077,14.283148 -7.553187,3.115394 a 0.61869122,0.61869122 89.999998 0 0 0,1.1439 l 7.553187,3.115393 a 3.6367095,3.6367095 0 0 0 2.773354,0 l 7.553187,-3.115393 a 0.61869122,0.61869122 90.000002 0 0 0,-1.1439 l -7.553187,-3.115394 a 3.6367087,3.6367087 0 0 0 -2.773354,0 z m -9.669515,6.409419 v 7.639249 a 2.2890993,2.2890993 56.763994 0 0 1.375298,2.098795 l 7.486086,3.259393 a 0.98291934,0.98291934 146.76399 0 0 1.375298,-0.901205 v -7.840533 a 2.2480558,2.2480558 56.287068 0 0 -1.385075,-2.075818 l -7.466532,-3.104063 a 1.0008648,1.0008648 146.28707 0 0 -1.385075,0.924182 z m 20.669798,-0.924182 -7.466531,3.104063 a 2.2480559,2.2480559 123.71293 0 0 -1.385075,2.075818 l 0,7.840533 a 0.98291931,0.98291931 33.236005 0 0 1.375298,0.901204 l 7.486085,-3.259391 a 2.2890994,2.2890994 123.23601 0 0 1.375298,-2.098796 V 20.692567 A 1.0008648,1.0008648 33.712931 0 0 33.64236,19.768385 Z"
         inkscape:path-effect="#path-effect36"
         inkscape:original-d="m 24.028754,13.711198 -10.326541,4.259294 10.326541,4.259293 10.326541,-4.259293 z m -11.056192,5.481369 v 10.639249 l 10.236682,4.456983 V 23.448266 Z m 22.054873,0 -10.236681,4.255699 v 10.840533 l 10.236681,-4.456983 z"
         transform="translate(-38.281839)" /></g></g></svg>
